<mxfile host="app.diagrams.net" modified="2020-07-31T01:44:20.502Z" agent="5.0 (Windows NT 6.1; Win64; x64) AppleWebKit/537.36 (KHTML, like Gecko) Chrome/84.0.4147.105 Safari/537.36" etag="GLHkY0W8ROvkI8oKhpoo" version="13.5.7" type="github">
  <diagram id="9qLSlZ0DMB80m-xK0opT" name="Page-1">
    <mxGraphModel dx="1422" dy="740" grid="1" gridSize="10" guides="1" tooltips="1" connect="1" arrows="1" fold="1" page="1" pageScale="1" pageWidth="827" pageHeight="1169" math="0" shadow="0">
      <root>
        <mxCell id="0" />
        <mxCell id="1" parent="0" />
        <mxCell id="3JPuXMuP2FlYKc3jA3Zz-1" value="" style="whiteSpace=wrap;html=1;aspect=fixed;gradientDirection=north;rounded=1;shadow=0;glass=0;sketch=1;" vertex="1" parent="1">
          <mxGeometry x="360" y="110" width="80" height="80" as="geometry" />
        </mxCell>
        <mxCell id="3JPuXMuP2FlYKc3jA3Zz-2" value="" style="shape=xor;whiteSpace=wrap;html=1;sketch=1;rotation=-90;" vertex="1" parent="1">
          <mxGeometry x="370" y="40" width="60" height="80" as="geometry" />
        </mxCell>
        <mxCell id="3JPuXMuP2FlYKc3jA3Zz-6" value="" style="triangle;whiteSpace=wrap;html=1;rounded=0;shadow=0;glass=0;sketch=1;gradientColor=none;" vertex="1" parent="1">
          <mxGeometry x="130" y="100" width="60" height="80" as="geometry" />
        </mxCell>
        <mxCell id="3JPuXMuP2FlYKc3jA3Zz-7" value="" style="shape=process;whiteSpace=wrap;html=1;backgroundOutline=1;rounded=0;shadow=0;glass=0;sketch=1;gradientColor=none;" vertex="1" parent="1">
          <mxGeometry x="210" y="190" width="120" height="60" as="geometry" />
        </mxCell>
        <mxCell id="3JPuXMuP2FlYKc3jA3Zz-8" value="" style="shape=tape;whiteSpace=wrap;html=1;rounded=0;shadow=0;glass=0;sketch=1;gradientColor=none;" vertex="1" parent="1">
          <mxGeometry x="350" y="210" width="120" height="100" as="geometry" />
        </mxCell>
        <mxCell id="3JPuXMuP2FlYKc3jA3Zz-9" value="" style="shape=card;whiteSpace=wrap;html=1;rounded=0;shadow=0;glass=0;sketch=1;gradientColor=none;" vertex="1" parent="1">
          <mxGeometry x="230" y="270" width="80" height="100" as="geometry" />
        </mxCell>
      </root>
    </mxGraphModel>
  </diagram>
</mxfile>
